<svg aria-hidden="true" style="width:0;height:0;position:absolute;overflow:hidden" xmlns="http://www.w3.org/2000/svg"><defs><symbol id="left" viewBox="0 0 37 32"><path fill="#fefefe" style="fill:var(--color1,#fefefe)" d="M2.667 21.333v-16A5.333 5.333 0 0 1 8 0h21.333a5.333 5.333 0 0 1 5.333 5.333v16a5.333 5.333 0 0 1-5.333 5.333H8a5.333 5.333 0 0 1-5.333-5.333z"/><path fill="#2c2c2c" style="fill:var(--color2,#2c2c2c)" d="m11.634 13.937 9.288 8.85a.832.832 0 0 0 1.15 0l.01-.01a.78.78 0 0 0 .238-.555.763.763 0 0 0-.238-.555l-8.747-8.333 8.747-8.33a.78.78 0 0 0 .238-.555.763.763 0 0 0-.238-.555l-.01-.01a.832.832 0 0 0-1.15 0l-9.288 8.85a.82.82 0 0 0-.258.603.837.837 0 0 0 .258.603z"/></symbol><symbol id="Ellipse-580" viewBox="0 0 32 32"><path fill="#fefefe" style="fill:var(--color1,#fefefe)" stroke-width="1.435" d="M31.283 16c0 8.44-6.842 15.283-15.283 15.283S.717 24.441.717 16C.717 7.56 7.559.717 16 .717S31.283 7.559 31.283 16z"/></symbol><symbol id="Ellipse-320" viewBox="0 0 32 32"><path fill="#fff" style="fill:var(--color3,#fff);stroke:var(--color2,#ffe550)" stroke="#ffe550" stroke-width="1.4" d="M31.3 16c0 8.45-6.85 15.3-15.3 15.3S.7 24.45.7 16C.7 7.55 7.55.7 16 .7S31.3 7.55 31.3 16z"/></symbol><symbol id="Rectangle-696-336" viewBox="0 0 32 32"><path fill="#fefefe" style="fill:var(--color1,#fefefe);stroke:var(--color2,#ffe550)" stroke="#ffe550" stroke-width="1.325" d="M15.826.663h.158c8.375 0 15.164 6.789 15.164 15.164v.347c0 8.375-6.789 15.164-15.164 15.164h-.158C7.451 31.338.662 24.549.662 16.174v-.347C.662 7.452 7.451.663 15.826.663z"/></symbol><symbol id="Frame" viewBox="0 0 32 32"><path fill="none" stroke="#ff705d" style="stroke:var(--color4,#ff705d)" stroke-linejoin="round" stroke-linecap="round" stroke-width="2.286" d="M16 11.429v6.857M16.002 26.286a1.143 1.143 0 1 0 0-2.287 1.143 1.143 0 0 0 0 2.287z"/><path fill="none" stroke="#ff705d" style="stroke:var(--color4,#ff705d)" stroke-linejoin="round" stroke-linecap="round" stroke-width="2.286" d="M18.036 2.4a2.286 2.286 0 0 0-4.068 0L1.397 27.543a2.281 2.281 0 0 0 .094 2.224 2.287 2.287 0 0 0 1.941 1.09h25.143a2.28 2.28 0 0 0 1.941-1.09 2.292 2.292 0 0 0 .093-2.224L18.038 2.4z"/></symbol><symbol id="gg_menu" viewBox="0 0 32 32"><path d="M2.666 8A1.335 1.335 0 0 1 4 6.666h24A1.33 1.33 0 0 1 29.333 8 1.333 1.333 0 0 1 28 9.334H4A1.335 1.335 0 0 1 2.666 8zm0 8.043A1.33 1.33 0 0 1 4 14.71h24a1.333 1.333 0 1 1 0 2.666H4a1.333 1.333 0 0 1-1.334-1.333zM4 22.752a1.337 1.337 0 0 0-1.334 1.333A1.33 1.33 0 0 0 4 25.418h24a1.333 1.333 0 1 0 0-2.666H4z"/></symbol><symbol id="rocket_launch" viewBox="0 0 32 32"><path fill="#7eb101" style="fill:var(--color5,#7eb101)" d="m7.233 13.633 3.533 1.5c.4-.8.828-1.589 1.283-2.367s.939-1.522 1.45-2.233L10.866 10l-3.633 3.633zm5.134 2.7 4.433 4.433c1.267-.578 2.456-1.233 3.567-1.967s2.011-1.444 2.7-2.133c1.8-1.8 3.122-3.644 3.967-5.533s1.3-4.022 1.367-6.4c-2.378.067-4.511.522-6.4 1.367s-3.733 2.167-5.533 3.967c-.689.689-1.4 1.589-2.133 2.7s-1.389 2.3-1.967 3.567zm7.633-3.2c-.444-.444-.667-.995-.667-1.65s.222-1.206.667-1.65.994-.667 1.65-.667c.656 0 1.206.222 1.65.667s.667.994.667 1.65c0 .655-.222 1.206-.667 1.65s-.994.667-1.65.667-1.206-.222-1.65-.667zM19.5 25.9l3.633-3.633-.533-2.633c-.711.511-1.456.994-2.233 1.45S18.8 21.967 18 22.367l1.5 3.533zM30.367 2.767c.2 3.022-.178 5.778-1.133 8.267s-2.533 4.833-4.733 7.033l-.133.133.733 3.667c.067.333.05.656-.05.967s-.272.589-.517.833l-5.7 5.733-2.833-6.6-5.667-5.667-6.6-2.833 5.733-5.7c.244-.244.522-.417.833-.517s.633-.117.967-.05l3.667.733c.022-.022.044-.039.067-.05s.044-.028.067-.05c2.2-2.2 4.544-3.783 7.033-4.75s5.244-1.35 8.267-1.15zm-24.4 18.4c.778-.778 1.728-1.172 2.85-1.183s2.072.372 2.85 1.15c.778.778 1.161 1.728 1.15 2.85s-.406 2.072-1.183 2.85c-.578.578-1.472 1.055-2.683 1.433s-3.028.733-5.45 1.067c.333-2.422.683-4.244 1.05-5.467s.839-2.122 1.417-2.7zm1.4 1.433c-.311.333-.589.856-.833 1.567s-.456 1.622-.633 2.733c1.111-.178 2.022-.389 2.733-.633s1.233-.522 1.567-.833c.422-.378.639-.85.65-1.417s-.183-1.061-.583-1.483c-.422-.4-.917-.595-1.483-.583s-1.039.228-1.417.65z"/></symbol><symbol id="touch_app" viewBox="0 0 32 32"><path fill="#7eb101" style="fill:var(--color5,#7eb101)" d="M15.5 1.333c2.022 0 3.75.706 5.183 2.117s2.15 3.128 2.15 5.15c0 1.156-.25 2.244-.75 3.267s-1.206 1.889-2.117 2.6h-1.133V12.8c.644-.511 1.139-1.133 1.483-1.867s.517-1.511.517-2.333c0-1.467-.522-2.711-1.567-3.733s-2.3-1.533-3.767-1.533-2.722.511-3.767 1.533-1.567 2.267-1.567 3.733c0 .822.172 1.6.517 2.333s.839 1.356 1.483 1.867v2.4c-1.244-.645-2.222-1.556-2.933-2.733S8.165 10 8.165 8.6c0-2.022.717-3.739 2.15-5.15s3.161-2.117 5.183-2.117zm-1.266 28c-.378 0-.733-.072-1.067-.217s-.622-.339-.867-.583l-6.867-6.867L7.3 19.733c.311-.311.661-.55 1.05-.717s.794-.194 1.217-.083l2.6.6V8.666c0-.933.322-1.722.967-2.367s1.433-.967 2.367-.967c.933 0 1.722.322 2.367.967s.967 1.433.967 2.367v5.733h.867c.111 0 .211.022.3.067s.189.089.3.133l4.933 2.4c.533.244.928.639 1.183 1.183s.328 1.106.217 1.683l-1.2 7.267c-.111.645-.422 1.172-.933 1.583s-1.089.617-1.733.617h-8.533zm-.267-2h9.367l1.433-8.3-6.1-3.033h-1.833V8.667c0-.4-.122-.722-.367-.967s-.567-.367-.967-.367-.722.122-.967.367c-.245.244-.367.567-.367.967v13.3l-5.133-1.1-.767.767 5.7 5.7zm9.367 0z"/></symbol><symbol id="Right" viewBox="0 0 37 32"><path fill="#fefefe" style="fill:var(--color1,#fefefe)" d="M34.667 5.333v16a5.333 5.333 0 0 1-5.333 5.333H8.001a5.333 5.333 0 0 1-5.333-5.333v-16A5.333 5.333 0 0 1 8.001 0h21.333a5.333 5.333 0 0 1 5.333 5.333z"/><path fill="#2c2c2c" style="fill:var(--color2,#2c2c2c)" d="m25.7 12.73-9.288-8.85a.832.832 0 0 0-1.15 0l-.01.01a.78.78 0 0 0-.238.555.763.763 0 0 0 .238.555l8.747 8.333-8.747 8.33a.78.78 0 0 0-.238.555.763.763 0 0 0 .238.555l.01.01a.832.832 0 0 0 1.15 0l9.288-8.85a.82.82 0 0 0 .258-.603.837.837 0 0 0-.258-.603z"/></symbol><symbol id="logo" viewBox="0 0 32 32"><path fill="#ffe553" style="fill:var(--color6,#ffe553)" d="M12.018 9.046c.738-1.444 2.802-1.444 3.541 0l.935 1.828c.289.566.831.959 1.459 1.059l2.025.322c1.604.255 2.243 2.221 1.094 3.37l-1.445 1.445a1.989 1.989 0 0 0-.558 1.716l.319 2.02c.253 1.603-1.417 2.818-2.864 2.083l-1.834-.931a1.991 1.991 0 0 0-1.801 0l-1.834.931c-1.447.735-3.117-.48-2.864-2.083l.319-2.02a1.988 1.988 0 0 0-.558-1.716l-1.445-1.445c-1.149-1.148-.51-3.115 1.094-3.37l2.025-.322a1.992 1.992 0 0 0 1.459-1.059l.935-1.828z"/><path fill="#2c2c2c" style="fill:var(--color7,#2c2c2c)" d="m2.532 19.303-.015.004c.002.054-.001.273-.008.656-.002.382-.003.633-.002.752 0 .114-.003.208-.007.28l.001.245a1.733 1.733 0 0 1-.014.216l-.013.15c-.01.095-.031.146-.062.153-.067.016-.172-.036-.315-.154-.144-.124-.227-.233-.249-.325s-.028-.772-.017-2.039c.016-1.268-.019-2.101-.102-2.501a.307.307 0 0 1 .01-.199c.026-.12.16-.234.402-.34.247-.107.616-.219 1.106-.335.495-.117.888-.182 1.179-.197.296-.015.455.023.477.116.015.062-.019.116-.1.163s-.154.085-.218.117l-.254.101-.295.102c-.092.027-.21.066-.356.117l-.391.141c-.121.04-.285.097-.49.173s-.339.123-.399.143a.225.225 0 0 1 .024.068c.057.242.089.823.094 1.743.324-.06.665-.149 1.024-.266.364-.119.588-.188.67-.207.196-.046.304-.028.323.054.038.16-.155.347-.578.561a6.368 6.368 0 0 1-1.424.508zm5.053-1.422a1.465 1.465 0 0 0-.203-.475.697.697 0 0 0-.33-.29c-.333.182-.574.53-.725 1.045-.146.508-.173.961-.079 1.359s.251.622.47.673c.354-.16.609-.487.765-.981.159-.501.193-.944.101-1.331zm-2.019.55c.085-.445.242-.831.47-1.157.232-.333.5-.535.804-.607.31-.073.599-.002.868.212.268.209.446.502.535.879.088.371.088.774.001 1.209a2.76 2.76 0 0 1-.521 1.145c-.255.327-.56.533-.916.617-.263.062-.511-.007-.744-.208s-.393-.487-.481-.859a3.003 3.003 0 0 1-.014-1.231zm5.526-1.378a1.465 1.465 0 0 0-.203-.475.697.697 0 0 0-.33-.29c-.333.182-.574.531-.725 1.045-.146.509-.173.961-.079 1.359s.251.622.47.673c.354-.16.609-.487.765-.981.159-.501.193-.944.101-1.331zm-2.019.55c.085-.445.242-.831.47-1.157.232-.333.5-.535.804-.607.31-.073.599-.002.868.212.268.209.446.502.535.879.088.371.088.775.001 1.209a2.76 2.76 0 0 1-.521 1.145c-.255.327-.56.533-.916.617-.263.062-.511-.007-.744-.208s-.393-.487-.481-.859a3.003 3.003 0 0 1-.014-1.231zm5.676-5.09c.083-.019.201.034.357.161.159.12.255.248.287.382s.058.531.078 1.191c.019.655.023 1.337.011 2.048-.014 1.594-.081 2.405-.2 2.433-.072.017-.163-.008-.271-.075-.105-.073-.165-.144-.181-.211s-.03-.206-.041-.415c-.383.635-.763.997-1.14 1.086-.227.054-.458-.001-.693-.163-.23-.164-.371-.357-.423-.578-.076-.32-.081-.719-.014-1.198.07-.485.225-.947.465-1.384s.542-.7.909-.787.674.072.922.477c.004-1.156-.056-2.054-.181-2.695-.037-.155.002-.246.115-.272zm.049 4a1.567 1.567 0 0 0-.314-.669c-.138-.169-.274-.238-.408-.206-.222.052-.416.243-.584.571s-.279.687-.334 1.076c-.051.383-.046.703.015.961.022.093.073.16.154.201s.167.05.26.028c.201-.048.438-.256.71-.625a2.6 2.6 0 0 0 .509-1.199l.001-.098-.009-.039zm4.942-.464c.1.423-.006.824-.32 1.203-.315.374-.72.619-1.215.736-.49.116-.925.085-1.305-.092-.381-.182-.599-.387-.652-.614-.037-.155-.009-.243.084-.265.083-.019.274.066.576.256.114.066.257.119.43.16.178.04.355.039.531-.003a1.74 1.74 0 0 0 .894-.505c.24-.253.334-.487.283-.704-.033-.139-.168-.295-.405-.468s-.492-.328-.764-.465c-.268-.144-.522-.304-.76-.482s-.373-.331-.403-.46c-.031-.129-.037-.272-.02-.428s.049-.276.095-.357c.149-.269.413-.547.792-.832.384-.287.721-.464 1.01-.533.15-.035.288-.016.414.057s.203.165.228.273c.012.052-.032.106-.133.162s-.256.137-.466.241c-.206.098-.386.2-.54.307-.54.367-.784.656-.734.868.027.114.404.36 1.131.738.28.146.544.332.794.556.253.218.406.435.457.652zm1.778.39c.023.098.092.134.205.107.196-.046.421-.157.674-.331.257-.181.401-.274.432-.282.093-.022.151.016.174.114.035.15-.078.359-.342.628-.258.268-.513.432-.766.491a.98.98 0 0 1-.667-.055c-.198-.1-.314-.223-.349-.367s-.047-.335-.037-.571c.008-.242.026-.559.052-.952.031-.399.051-.728.06-.987-.229.114-.385.181-.467.2s-.175-.002-.277-.065c-.098-.069-.156-.143-.175-.22-.029-.124.278-.322.922-.594a5.632 5.632 0 0 0-.13-1.17c-.037-.155-.003-.244.1-.269.088-.021.21.01.365.094.155.078.249.186.282.326s.047.395.043.766c.288-.095.52-.164.695-.205.31-.073.48-.043.512.092.018.077-.052.162-.21.254-.153.091-.485.253-.996.488a35.48 35.48 0 0 1-.078 1.498c-.042.56-.049.897-.022 1.01zm3.458-4.053c.232-.055.474.013.727.204.251.186.399.374.445.565.044.186.025.392-.058.618.08.063.127.123.141.179.034.144.059.4.075.767.021.365.037.604.047.716a2.513 2.513 0 0 1 .036.465c.01.134-.021.209-.093.226-.093.022-.189-.04-.289-.185a2.311 2.311 0 0 1-.251-.611c-.321.691-.678 1.083-1.07 1.176-.237.056-.496.011-.776-.136-.276-.153-.44-.337-.491-.554-.073-.31-.05-.718.069-1.226.118-.513.316-.99.593-1.431s.575-.7.895-.775zm.679 1.278c-.114-.48-.266-.697-.457-.652-.201.047-.402.247-.602.6-.201.347-.352.723-.452 1.128s-.125.713-.075.925a.272.272 0 0 0 .16.191c.084.035.176.04.274.017.242-.057.477-.284.705-.681.226-.402.343-.852.35-1.349-.003-.081.03-.138.099-.17l-.002-.008z"/><path fill="#bbf330" style="fill:var(--color8,#bbf330)" d="M24.157 18.895a.67.67 0 0 0-.469.439 10.436 10.436 0 0 1-9.888 7.081c-2.787 0-5.318-1.09-7.189-2.867a.667.667 0 0 0-.617-.169c-.467.115-.643.681-.297 1.014a11.648 11.648 0 0 0 8.103 3.264c5.171 0 9.556-3.355 11.091-8.004.151-.456-.269-.873-.735-.758zM3.05 14.652a.661.661 0 0 0 .486-.528 10.432 10.432 0 0 1 10.265-8.539 10.42 10.42 0 0 1 8.205 3.981c.16.203.423.301.674.239.426-.105.619-.601.349-.948A11.665 11.665 0 0 0 13.8 4.341a11.674 11.674 0 0 0-11.501 9.635c-.076.432.325.779.75.674z"/><path fill="#bbf330" style="fill:var(--color8,#bbf330);stroke:var(--color8,#bbf330)" stroke="#bbf330" stroke-linejoin="round" stroke-width=".457" d="M31.358 8.227c-2.759 5.276-3.971 1.796-7.855 3.84.388-6.124 4.503-2.398 7.855-3.84z"/></symbol><symbol id="Chevron-Down" viewBox="0 0 32 32"><path d="M21.623 15.195a.843.843 0 0 1 0 1.192l-8.592 8.592a.843.843 0 0 1-1.192 0l-.397-.397a.843.843 0 0 1 0-1.192l7.599-7.599-7.599-7.599a.843.843 0 0 1 0-1.192l.397-.397a.843.843 0 0 1 1.192 0l8.592 8.592z"/></symbol><symbol id="icon-Stars" viewBox="0 0 200 32"><path fill="#ffe550" style="fill:var(--color1,#ffe550)" d="M15.639 1.037c.593-1.383 2.611-1.383 3.204 0l3.498 8.164c.25.583.815.982 1.463 1.032l9.079.707c1.538.12 2.162 1.983.99 2.958l-6.917 5.752a1.656 1.656 0 0 0-.559 1.67l2.113 8.6c.358 1.457-1.275 2.609-2.592 1.828l-7.773-4.609a1.781 1.781 0 0 0-1.809 0l-7.773 4.609c-1.317.781-2.95-.371-2.592-1.828l2.113-8.6a1.656 1.656 0 0 0-.559-1.67L.607 13.898c-1.172-.975-.548-2.838.99-2.958l9.079-.707a1.73 1.73 0 0 0 1.463-1.032l3.498-8.164zM57.018 1.037c.593-1.383 2.611-1.383 3.204 0l3.498 8.164c.25.583.815.982 1.463 1.032l9.079.707c1.538.12 2.162 1.983.99 2.958l-6.918 5.752a1.656 1.656 0 0 0-.559 1.67l2.113 8.6c.358 1.457-1.275 2.609-2.592 1.828l-7.773-4.609a1.781 1.781 0 0 0-1.809 0l-7.773 4.609c-1.317.781-2.95-.371-2.592-1.828l2.113-8.6a1.656 1.656 0 0 0-.559-1.67l-6.918-5.752c-1.172-.975-.548-2.838.99-2.958l9.08-.707a1.731 1.731 0 0 0 1.463-1.032l3.498-8.164zM98.397 1.037c.593-1.383 2.611-1.383 3.204 0l3.498 8.164c.25.583.815.982 1.463 1.032l9.079.707c1.538.12 2.162 1.983.99 2.958l-6.917 5.752a1.656 1.656 0 0 0-.559 1.67l2.113 8.6c.358 1.457-1.275 2.609-2.592 1.828l-7.773-4.609a1.781 1.781 0 0 0-1.809 0l-7.773 4.609c-1.317.781-2.95-.371-2.592-1.828l2.113-8.6a1.656 1.656 0 0 0-.559-1.67l-6.918-5.752c-1.172-.975-.548-2.838.99-2.958l9.079-.707a1.73 1.73 0 0 0 1.463-1.032l3.498-8.164zM139.778 1.037c.593-1.383 2.611-1.383 3.204 0l3.498 8.164c.25.583.815.982 1.463 1.032l9.079.707c1.538.12 2.162 1.983.99 2.958l-6.917 5.752a1.656 1.656 0 0 0-.559 1.67l2.113 8.6c.358 1.457-1.275 2.609-2.592 1.828l-7.773-4.609a1.781 1.781 0 0 0-1.809 0l-7.773 4.609c-1.317.781-2.95-.371-2.592-1.828l2.113-8.6a1.656 1.656 0 0 0-.559-1.67l-6.918-5.752c-1.172-.975-.548-2.838.99-2.958l9.079-.707a1.729 1.729 0 0 0 1.463-1.032l3.498-8.164zM181.157 1.037c.593-1.383 2.611-1.383 3.204 0l3.498 8.164c.25.583.815.982 1.463 1.032l9.079.707c1.538.12 2.162 1.983.99 2.958l-6.917 5.752a1.656 1.656 0 0 0-.559 1.67l2.113 8.6c.358 1.457-1.275 2.609-2.592 1.828l-7.773-4.609a1.781 1.781 0 0 0-1.809 0l-7.773 4.609c-1.317.781-2.95-.371-2.592-1.828l2.113-8.6a1.656 1.656 0 0 0-.559-1.67l-6.917-5.752c-1.172-.975-.548-2.838.99-2.958l9.079-.707a1.73 1.73 0 0 0 1.463-1.032l3.498-8.164z"/></symbol><symbol id="icon-close" viewBox="0 0 32 32"><path d="m26.667 7.303-1.97-1.97-7.808 7.808-7.808-7.808-1.97 1.97 7.808 7.808-7.808 7.808 1.97 1.97 7.808-7.808 7.808 7.808 1.97-1.97-7.808-7.808 7.808-7.808z"/></symbol><symbol id="icon-person" viewBox="0 0 32 32"><path d="M16 16c2.947 0 5.333-2.387 5.333-5.333S18.946 5.334 16 5.334c-2.947 0-5.333 2.387-5.333 5.333S13.054 16 16 16zm0 2.667c-3.56 0-10.667 1.787-10.667 5.333v1.333c0 .733.6 1.333 1.333 1.333h18.667c.733 0 1.333-.6 1.333-1.333V24c0-3.547-7.107-5.333-10.667-5.333z"/></symbol><symbol id="icon-phone" viewBox="0 0 32 32"><path d="m24.882 19.773-3.268-.373a2.561 2.561 0 0 0-2.11.733L17.137 22.5a19.357 19.357 0 0 1-8.478-8.478l2.38-2.38a2.561 2.561 0 0 0 .733-2.11l-.373-3.242a2.575 2.575 0 0 0-2.56-2.277H6.613c-1.454 0-2.663 1.209-2.573 2.663.682 10.987 9.469 19.761 20.443 20.443 1.454.09 2.663-1.119 2.663-2.573V22.32a2.549 2.549 0 0 0-2.264-2.547z"/></symbol><symbol id="icon-email" viewBox="0 0 32 32"><path d="M26.667 5.333H5.334A2.663 2.663 0 0 0 2.681 8l-.013 16c0 1.467 1.2 2.667 2.667 2.667h21.333c1.467 0 2.667-1.2 2.667-2.667V8c0-1.467-1.2-2.667-2.667-2.667zM26.133 11l-9.427 5.893a1.346 1.346 0 0 1-1.413 0L5.866 11a1.132 1.132 0 1 1 1.2-1.92l8.933 5.587 8.933-5.587a1.132 1.132 0 1 1 1.2 1.92z"/></symbol><symbol id="click-left" viewBox="0 0 18 32"><path d="m.48 16.965 14.861 14.16a1.334 1.334 0 0 0 1.84 0l.016-.016a1.237 1.237 0 0 0 .382-.889 1.22 1.22 0 0 0-.382-.889L3.202 15.998 17.197 2.67a1.222 1.222 0 0 0 .282-1.373 1.231 1.231 0 0 0-.282-.405l-.016-.016a1.336 1.336 0 0 0-1.84 0L.48 15.036a1.331 1.331 0 0 0 0 1.93z"/></symbol><symbol id="click-right" viewBox="0 0 18 32"><path d="M17.653 15.035 2.792.875a1.334 1.334 0 0 0-1.84 0L.936.891a1.222 1.222 0 0 0-.282 1.373c.065.153.162.291.282.405l13.995 13.333L.936 29.33a1.212 1.212 0 0 0-.381.889 1.236 1.236 0 0 0 .381.889l.016.016a1.334 1.334 0 0 0 1.84 0l14.861-14.16a1.331 1.331 0 0 0 0-1.93z"/></symbol><symbol id="right1" viewBox="0 0 38 32"><path fill="#fff" style="fill:var(--color1,#fff)" d="M38.4 6.4v19.2A6.4 6.4 0 0 1 32 32H6.4A6.4 6.4 0 0 1 0 25.6V6.4A6.4 6.4 0 0 1 6.4 0H32a6.4 6.4 0 0 1 6.4 6.4z"/><path fill="#2C2C2C" style="fill:var(--color2,#2c2c2c)" d="M27.64 15.276 16.494 4.656a1.001 1.001 0 0 0-1.38 0l-.012.012a.936.936 0 0 0-.287.667.908.908 0 0 0 .287.667l10.496 10-10.496 9.996a.936.936 0 0 0-.287.667.908.908 0 0 0 .287.667l.012.012a1.001 1.001 0 0 0 1.38 0l11.146-10.62a.994.994 0 0 0 .31-.724 1.01 1.01 0 0 0-.31-.724z"/></symbol><symbol id="left1" viewBox="0 0 38 32"><path fill="#fff" style="fill:var(--color1,#fff)" d="M0 25.6V6.4A6.4 6.4 0 0 1 6.4 0H32a6.4 6.4 0 0 1 6.4 6.4v19.2A6.4 6.4 0 0 1 32 32H6.4A6.4 6.4 0 0 1 0 25.6z"/><path fill="#2C2C2C" style="fill:var(--color2,#2c2c2c)" d="m10.76 16.724 11.146 10.62a1.001 1.001 0 0 0 1.38 0l.012-.012a.936.936 0 0 0 .287-.667.908.908 0 0 0-.287-.667l-10.496-10 10.496-9.996a.936.936 0 0 0 .287-.667.908.908 0 0 0-.287-.667l-.012-.012a1.001 1.001 0 0 0-1.38 0L10.76 15.276a.994.994 0 0 0-.31.724 1.01 1.01 0 0 0 .31.724z"/></symbol><symbol id="icon-Frameerror" viewBox="0 0 32 32"><path fill="none" stroke="#ff705d" style="stroke:var(--color1,#ff705d)" stroke-linejoin="round" stroke-linecap="round" stroke-width="2.286" d="M16 11.429v6.857m.002 8a1.143 1.143 0 1 0 0-2.287 1.143 1.143 0 0 0 0 2.287z"/><path fill="none" stroke="#ff705d" style="stroke:var(--color1,#ff705d)" stroke-linejoin="round" stroke-linecap="round" stroke-width="2.286" d="M18.036 2.4a2.286 2.286 0 0 0-4.068 0L1.397 27.543a2.281 2.281 0 0 0 .094 2.224 2.287 2.287 0 0 0 1.941 1.09h25.143a2.28 2.28 0 0 0 1.941-1.09 2.292 2.292 0 0 0 .093-2.224L18.038 2.4z"/></symbol><symbol id="icon-logo-new" viewBox="0 0 43 32"><path fill="#ffe550" style="fill:var(--color1,#ffe550)" d="M14.732 8.449c1.446-2.818 5.48-2.818 6.926 0a3.889 3.889 0 0 0 2.849 2.06c3.119.493 4.381 4.322 2.144 6.55a3.857 3.857 0 0 0-1.088 3.34c.494 3.117-2.785 5.468-5.601 4.043a3.931 3.931 0 0 0-3.533 0c-2.816 1.424-6.095-.927-5.601-4.043a3.863 3.863 0 0 0-1.088-3.34c-2.238-2.227-.975-6.057 2.144-6.55a3.89 3.89 0 0 0 2.849-2.06z"/><path fill="#2c2c2c" style="fill:var(--color2,#2c2c2c)" d="m2.709 20.651-.021.005c.003.074-.001.373-.012.898-.003.523-.004.866-.003 1.03 0 .157-.004.284-.01.383l.001.335c-.002.12-.008.218-.02.296l-.019.206c-.014.13-.042.2-.085.21-.092.022-.237-.049-.433-.211-.198-.17-.312-.318-.343-.445s-.038-1.058-.022-2.792c.022-1.736-.024-2.877-.139-3.425a.418.418 0 0 1 .014-.272c.036-.165.22-.32.554-.466.34-.147.848-.3 1.524-.459.683-.161 1.224-.251 1.625-.27.408-.021.627.032.657.159.02.085-.026.159-.138.223s-.212.117-.3.16l-.35.138c-.146.049-.281.096-.406.14-.126.037-.29.091-.491.16-.194.068-.374.133-.539.194-.167.054-.393.133-.676.237s-.467.169-.55.196c.012.02.023.05.033.093.079.332.122 1.127.129 2.386.446-.082.916-.204 1.411-.365.502-.163.81-.258.923-.284.27-.064.419-.039.446.074.052.219-.213.475-.797.769a8.769 8.769 0 0 1-1.963.696zM9.672 18.701a1.999 1.999 0 0 0-.279-.651c-.13-.201-.282-.333-.455-.397-.459.25-.792.727-.999 1.432-.202.696-.239 1.317-.109 1.861s.345.851.647.922c.488-.219.84-.667 1.054-1.344.22-.686.267-1.293.14-1.823zm-2.782.755c.118-.61.334-1.138.648-1.584.32-.456.689-.733 1.109-.831.427-.1.825-.004 1.195.29.368.286.614.687.737 1.203.121.509.121 1.061 0 1.656a3.773 3.773 0 0 1-.719 1.568c-.351.448-.772.73-1.263.845-.363.085-.704-.01-1.025-.285s-.542-.667-.663-1.176c-.123-.516-.129-1.077-.018-1.685zM14.505 17.565a1.999 1.999 0 0 0-.279-.651c-.13-.201-.282-.333-.455-.397-.459.25-.792.727-.999 1.432-.202.696-.239 1.317-.109 1.861s.345.851.647.922c.488-.219.84-.667 1.054-1.344.22-.686.267-1.293.14-1.823zm-2.782.755c.118-.61.334-1.138.648-1.584.32-.456.689-.733 1.109-.831.427-.1.825-.004 1.195.29.368.286.614.687.737 1.203.121.509.121 1.061 0 1.656a3.773 3.773 0 0 1-.719 1.568c-.351.448-.772.73-1.263.845-.363.085-.704-.01-1.025-.285s-.542-.667-.663-1.176c-.123-.516-.129-1.077-.018-1.685zM19.547 11.345c.114-.027.278.047.492.22.219.165.351.339.395.523s.079.727.107 1.631c.026.897.03 1.832.014 2.805-.021 2.183-.113 3.294-.277 3.332-.1.023-.224-.011-.374-.102-.144-.1-.227-.197-.249-.288s-.041-.281-.056-.569c-.529.87-1.053 1.366-1.572 1.488-.313.074-.631-.001-.954-.223-.316-.224-.51-.488-.583-.792-.104-.438-.11-.985-.019-1.64.097-.664.311-1.296.641-1.896s.748-.959 1.253-1.078c.505-.119.928.099 1.27.652.006-1.583-.076-2.813-.248-3.69-.05-.212.003-.336.159-.373zm.065 5.478c-.091-.381-.235-.687-.432-.917-.19-.231-.378-.325-.563-.282-.306.072-.574.333-.805.782s-.384.941-.46 1.473c-.071.524-.064.962.02 1.316.03.127.101.219.212.275s.23.069.358.039c.277-.065.604-.351.979-.857a3.561 3.561 0 0 0 .702-1.642l.002-.135-.013-.053zM26.421 16.184c.138.579-.009 1.128-.441 1.648a3.044 3.044 0 0 1-1.675 1.009c-.675.159-1.275.117-1.798-.125-.525-.25-.824-.53-.898-.841-.05-.212-.012-.333.116-.363.114-.027.378.09.793.351.157.09.354.163.593.219.246.054.489.053.731-.004a2.403 2.403 0 0 0 1.232-.692c.331-.346.461-.668.39-.964-.045-.191-.231-.404-.558-.641s-.677-.449-1.052-.636c-.37-.197-.719-.417-1.047-.66s-.513-.454-.555-.63c-.042-.177-.051-.372-.027-.587s.068-.378.131-.49c.205-.369.569-.749 1.091-1.14.53-.393.994-.636 1.392-.73.206-.048.396-.022.571.078s.279.225.314.374c.017.071-.044.145-.184.222s-.353.187-.642.33a5.204 5.204 0 0 0-.744.421c-.744.503-1.081.899-1.012 1.189.037.155.556.492 1.558 1.01.386.2.75.454 1.093.761.349.298.559.596.629.893zM28.87 16.716c.032.134.126.183.283.146.27-.064.58-.215.928-.453.354-.247.552-.376.595-.386.128-.03.208.022.24.156.049.205-.108.492-.471.86-.356.367-.708.592-1.056.674-.341.08-.648.055-.919-.075-.273-.137-.433-.305-.48-.503s-.064-.459-.051-.782c.011-.331.036-.765.073-1.304.042-.547.07-.997.084-1.351-.316.156-.53.248-.644.275s-.241-.003-.382-.089c-.135-.095-.215-.196-.241-.302-.04-.169.383-.441 1.271-.813a7.617 7.617 0 0 0-.179-1.603c-.05-.212-.005-.335.138-.368.121-.028.289.014.503.128.213.107.342.255.388.446s.065.54.058 1.049c.397-.131.716-.224.958-.281.427-.1.662-.059.706.125.025.106-.071.222-.289.348-.211.124-.668.347-1.372.669a47.72 47.72 0 0 1-.109 2.051c-.058.767-.068 1.228-.031 1.384zM33.639 11.164c.32-.075.654.018 1.001.279.346.254.55.512.612.774.06.254.034.537-.08.847.111.086.175.168.194.245.047.198.082.548.103 1.05.029.5.05.827.064.981a3.374 3.374 0 0 1 .05.637c.014.183-.029.287-.129.31-.128.03-.261-.054-.398-.253a3.17 3.17 0 0 1-.345-.836c-.443.947-.935 1.484-1.475 1.611-.327.077-.683.015-1.069-.185-.38-.209-.605-.462-.676-.758-.101-.424-.069-.983.096-1.678.163-.702.436-1.356.817-1.96s.793-.959 1.234-1.062zm.935 1.75c-.156-.657-.366-.954-.629-.893-.277.065-.554.339-.829.822-.277.475-.485.991-.623 1.545s-.173.977-.104 1.266c.029.12.102.207.22.262a.609.609 0 0 0 .377.023c.334-.079.658-.39.972-.933a3.813 3.813 0 0 0 .484-1.848c-.004-.111.041-.189.136-.233l-.002-.011z"/><path fill="#bbf330" style="fill:var(--color3,#bbf330)" d="M31.525 20.209c-.487.12-.876.479-1.073.941a13.291 13.291 0 0 1-12.24 8.048 13.288 13.288 0 0 1-8.41-2.977 1.59 1.59 0 0 0-1.38-.331c-1.085.267-1.487 1.578-.635 2.3a16.086 16.086 0 0 0 10.425 3.811c6.774 0 12.57-4.161 14.944-10.053.416-1.034-.549-2.004-1.631-1.738zM4.193 13.954c.562-.138.982-.598 1.123-1.159 1.441-5.732 6.657-9.993 12.895-9.993 3.94 0 7.473 1.7 9.904 4.397.385.427.967.636 1.525.498.981-.241 1.421-1.382.759-2.145A16.095 16.095 0 0 0 18.211 0C10.563 0 4.162 5.304 2.524 12.414c-.226.98.692 1.78 1.668 1.54z"/><path fill="#bbf330" style="fill:var(--color3,#bbf330);stroke:var(--color3,#bbf330)" stroke="#bbf330" stroke-linejoin="round" stroke-width="1.031" d="M42.409 5.331c-3.803 7.241-5.473 2.465-10.826 5.271.535-8.406 6.205-3.291 10.826-5.271z"/></symbol></defs></svg>