<svg xmlns="http://www.w3.org/2000/svg" viewBox="0 0 50 50" style="enable-background:new 0 0 50 50" xml:space="preserve"><switch><g><path d="M22.48 15.78c1.05-2.06 4-2.06 5.05 0l1.31 2.57c.41.81 1.18 1.37 2.08 1.51l2.86.46c2.28.36 3.19 3.16 1.56 4.79l-2.06 2.07a2.83 2.83 0 0 0-.79 2.44l.45 2.87c.36 2.29-2.02 4.01-4.09 2.96l-2.56-1.31a2.86 2.86 0 0 0-2.58 0l-2.56 1.31c-2.06 1.05-4.44-.68-4.09-2.96l.45-2.87c.14-.89-.15-1.8-.79-2.44l-2.06-2.07c-1.63-1.64-.72-4.43 1.56-4.79l2.86-.46c.89-.14 1.67-.71 2.08-1.51l1.32-2.57z" style="fill:#ffe651"/><circle cx="25" cy="25" r="17.65" style="fill:none;stroke:#b8ce26;stroke-width:5;stroke-linejoin:round"/><path d="M22.48 15.78c1.05-2.06 4-2.06 5.05 0l1.31 2.57c.41.81 1.18 1.37 2.08 1.51l2.86.46c2.28.36 3.19 3.16 1.56 4.79l-2.06 2.07a2.83 2.83 0 0 0-.79 2.44l.45 2.87c.36 2.29-2.02 4.01-4.09 2.96l-2.56-1.31a2.86 2.86 0 0 0-2.58 0l-2.56 1.31c-2.06 1.05-4.44-.68-4.09-2.96l.45-2.87c.14-.89-.15-1.8-.79-2.44l-2.06-2.07c-1.63-1.64-.72-4.43 1.56-4.79l2.86-.46c.89-.14 1.67-.71 2.08-1.51l1.32-2.57z" style="fill:none"/></g></switch></svg>