<svg aria-hidden="true" style="position: absolute; width: 0; height: 0; overflow: hidden;" version="1.1"
    xmlns="http://www.w3.org/2000/svg" xmlns:xlink="http://www.w3.org/1999/xlink">
    <defs>
        <symbol id="left" viewBox="0 0 37 32">
            <path fill="#fefefe" style="fill: var(--color1, #fefefe)"
                d="M2.667 21.333v-16c0-2.946 2.388-5.333 5.333-5.333h21.333c2.946 0 5.333 2.388 5.333 5.333v16c0 2.946-2.388 5.333-5.333 5.333h-21.333c-2.946 0-5.333-2.388-5.333-5.333z">
            </path>
            <path fill="#2c2c2c" style="fill: var(--color2, #2c2c2c)"
                d="M11.634 13.937l9.288 8.85c0.155 0.148 0.361 0.23 0.575 0.23s0.42-0.082 0.575-0.23l0.010-0.010c0.075-0.072 0.135-0.158 0.176-0.253s0.062-0.198 0.062-0.302-0.021-0.207-0.062-0.302c-0.041-0.096-0.101-0.182-0.176-0.253l-8.747-8.333 8.747-8.33c0.075-0.072 0.135-0.158 0.176-0.253s0.062-0.198 0.062-0.302-0.021-0.207-0.062-0.302c-0.041-0.096-0.101-0.182-0.176-0.253l-0.010-0.010c-0.155-0.148-0.361-0.23-0.575-0.23s-0.42 0.082-0.575 0.23l-9.288 8.85c-0.082 0.078-0.147 0.171-0.191 0.275s-0.067 0.215-0.067 0.328c0 0.113 0.023 0.225 0.067 0.328s0.109 0.197 0.191 0.275z">
            </path>
        </symbol>

        <symbol id="Ellipse-580" viewBox="0 0 32 32">
            <path fill="#fefefe" style="fill: var(--color1, #fefefe)" stroke-linejoin="miter" stroke-linecap="butt"
                stroke-miterlimit="4" stroke-width="1.4345"
                d="M31.283 16c0 8.44-6.842 15.283-15.283 15.283s-15.283-6.842-15.283-15.283c0-8.44 6.842-15.283 15.283-15.283s15.283 6.842 15.283 15.283z">
            </path>
        </symbol>
        <symbol id="Ellipse-320" viewBox="0 0 32 32">
            <path fill="#fff" style="fill: var(--color3, #fff); stroke: var(--color2, #ffe550)" stroke="#ffe550"
                stroke-linejoin="miter" stroke-linecap="butt" stroke-miterlimit="4" stroke-width="1.4"
                d="M31.3 16c0 8.45-6.85 15.3-15.3 15.3s-15.3-6.85-15.3-15.3c0-8.45 6.85-15.3 15.3-15.3s15.3 6.85 15.3 15.3z">
            </path>
        </symbol>
        <symbol id="Rectangle-696-336" viewBox="0 0 32 32">
            <path fill="#fefefe" style="fill: var(--color1, #fefefe); stroke: var(--color2, #ffe550)" stroke="#ffe550"
                stroke-linejoin="miter" stroke-linecap="butt" stroke-miterlimit="4" stroke-width="1.3254"
                d="M15.826 0.663h0.158c8.375 0 15.164 6.789 15.164 15.164v0.347c0 8.375-6.789 15.164-15.164 15.164h-0.158c-8.375 0-15.164-6.789-15.164-15.164v-0.347c0-8.375 6.789-15.164 15.164-15.164z">
            </path>
        </symbol>

        <symbol id="Frame" viewBox="0 0 32 32">
            <path fill="none" stroke="#ff705d" style="stroke: var(--color4, #ff705d)" stroke-linejoin="round"
                stroke-linecap="round" stroke-miterlimit="4" stroke-width="2.2857" d="M16 11.429v6.857"></path>
            <path fill="none" stroke="#ff705d" style="stroke: var(--color4, #ff705d)" stroke-linejoin="round"
                stroke-linecap="round" stroke-miterlimit="4" stroke-width="2.2857"
                d="M16.002 26.286c0.631 0 1.143-0.512 1.143-1.143s-0.512-1.143-1.143-1.143c-0.631 0-1.143 0.512-1.143 1.143s0.512 1.143 1.143 1.143z">
            </path>

            <path fill="none" stroke="#ff705d" style="stroke: var(--color4, #ff705d)" stroke-linejoin="round"
                stroke-linecap="round" stroke-miterlimit="4" stroke-width="2.2857"
                d="M18.036 2.4c-0.192-0.374-0.483-0.689-0.842-0.908s-0.771-0.336-1.192-0.336c-0.421 0-0.833 0.116-1.192 0.336s-0.65 0.534-0.842 0.908l-12.571 25.143c-0.175 0.348-0.259 0.735-0.242 1.124s0.132 0.768 0.336 1.1c0.204 0.332 0.489 0.606 0.829 0.797s0.723 0.291 1.112 0.293h25.143c0.39-0.001 0.772-0.102 1.112-0.293s0.625-0.465 0.829-0.797c0.204-0.332 0.319-0.711 0.336-1.1s-0.067-0.776-0.243-1.124l-12.571-25.143z">
            </path>
        </symbol>

        <symbol id="gg_menu" viewBox="0 0 32 32">
            <path
                d="M2.666 8c0-0.354 0.14-0.693 0.391-0.943s0.589-0.391 0.943-0.391h24c0.354 0 0.693 0.14 0.943 0.391s0.39 0.589 0.39 0.943c0 0.354-0.14 0.693-0.39 0.943s-0.589 0.391-0.943 0.391h-24c-0.354 0-0.693-0.14-0.943-0.391s-0.391-0.589-0.391-0.943zM2.666 16.043c0-0.354 0.14-0.693 0.391-0.943s0.589-0.39 0.943-0.39h24c0.354 0 0.693 0.14 0.943 0.39s0.39 0.589 0.39 0.943c0 0.354-0.14 0.693-0.39 0.943s-0.589 0.39-0.943 0.39h-24c-0.354 0-0.693-0.14-0.943-0.39s-0.391-0.589-0.391-0.943zM4 22.752c-0.354 0-0.693 0.141-0.943 0.39s-0.391 0.589-0.391 0.943 0.14 0.693 0.391 0.943c0.25 0.25 0.589 0.39 0.943 0.39h24c0.354 0 0.693-0.14 0.943-0.39s0.39-0.589 0.39-0.943c0-0.354-0.14-0.693-0.39-0.943s-0.589-0.39-0.943-0.39h-24z">
            </path>
        </symbol>

        <symbol id="rocket_launch" viewBox="0 0 32 32">
            <path fill="#7eb101" style="fill: var(--color5, #7eb101)"
                d="M7.233 13.633l3.533 1.5c0.4-0.8 0.828-1.589 1.283-2.367s0.939-1.522 1.45-2.233l-2.633-0.533-3.633 3.633zM12.367 16.333l4.433 4.433c1.267-0.578 2.456-1.233 3.567-1.967s2.011-1.444 2.7-2.133c1.8-1.8 3.122-3.644 3.967-5.533s1.3-4.022 1.367-6.4c-2.378 0.067-4.511 0.522-6.4 1.367s-3.733 2.167-5.533 3.967c-0.689 0.689-1.4 1.589-2.133 2.7s-1.389 2.3-1.967 3.567zM20 13.133c-0.444-0.444-0.667-0.995-0.667-1.65s0.222-1.206 0.667-1.65 0.994-0.667 1.65-0.667c0.656 0 1.206 0.222 1.65 0.667s0.667 0.994 0.667 1.65c0 0.655-0.222 1.206-0.667 1.65s-0.994 0.667-1.65 0.667-1.206-0.222-1.65-0.667zM19.5 25.9l3.633-3.633-0.533-2.633c-0.711 0.511-1.456 0.994-2.233 1.45s-1.567 0.883-2.367 1.283l1.5 3.533zM30.367 2.767c0.2 3.022-0.178 5.778-1.133 8.267s-2.533 4.833-4.733 7.033l-0.133 0.133 0.733 3.667c0.067 0.333 0.050 0.656-0.050 0.967s-0.272 0.589-0.517 0.833l-5.7 5.733-2.833-6.6-5.667-5.667-6.6-2.833 5.733-5.7c0.244-0.244 0.522-0.417 0.833-0.517s0.633-0.117 0.967-0.050l3.667 0.733c0.022-0.022 0.044-0.039 0.067-0.050s0.044-0.028 0.067-0.050c2.2-2.2 4.544-3.783 7.033-4.75s5.244-1.35 8.267-1.15zM5.967 21.167c0.778-0.778 1.728-1.172 2.85-1.183s2.072 0.372 2.85 1.15c0.778 0.778 1.161 1.728 1.15 2.85s-0.406 2.072-1.183 2.85c-0.578 0.578-1.472 1.055-2.683 1.433s-3.028 0.733-5.45 1.067c0.333-2.422 0.683-4.244 1.050-5.467s0.839-2.122 1.417-2.7zM7.367 22.6c-0.311 0.333-0.589 0.856-0.833 1.567s-0.456 1.622-0.633 2.733c1.111-0.178 2.022-0.389 2.733-0.633s1.233-0.522 1.567-0.833c0.422-0.378 0.639-0.85 0.65-1.417s-0.183-1.061-0.583-1.483c-0.422-0.4-0.917-0.595-1.483-0.583s-1.039 0.228-1.417 0.65z">
            </path>
        </symbol>

        <symbol id="touch_app" viewBox="0 0 32 32">
            <path fill="#7eb101" style="fill: var(--color5, #7eb101)"
                d="M15.5 1.333c2.022 0 3.75 0.706 5.183 2.117s2.15 3.128 2.15 5.15c0 1.156-0.25 2.244-0.75 3.267s-1.206 1.889-2.117 2.6h-1.133v-1.667c0.644-0.511 1.139-1.133 1.483-1.867s0.517-1.511 0.517-2.333c0-1.467-0.522-2.711-1.567-3.733s-2.3-1.533-3.767-1.533c-1.467 0-2.722 0.511-3.767 1.533s-1.567 2.267-1.567 3.733c0 0.822 0.172 1.6 0.517 2.333s0.839 1.356 1.483 1.867v2.4c-1.244-0.645-2.222-1.556-2.933-2.733s-1.067-2.467-1.067-3.867c0-2.022 0.717-3.739 2.15-5.15s3.161-2.117 5.183-2.117zM14.234 29.333c-0.378 0-0.733-0.072-1.067-0.217s-0.622-0.339-0.867-0.583l-6.867-6.867 1.867-1.933c0.311-0.311 0.661-0.55 1.050-0.717s0.794-0.194 1.217-0.083l2.6 0.6v-10.867c0-0.933 0.322-1.722 0.967-2.367s1.433-0.967 2.367-0.967c0.933 0 1.722 0.322 2.367 0.967s0.967 1.433 0.967 2.367v5.733h0.867c0.111 0 0.211 0.022 0.3 0.067s0.189 0.089 0.3 0.133l4.933 2.4c0.533 0.244 0.928 0.639 1.183 1.183s0.328 1.106 0.217 1.683l-1.2 7.267c-0.111 0.645-0.422 1.172-0.933 1.583s-1.089 0.617-1.733 0.617h-8.533zM13.967 27.333h9.367l1.433-8.3-6.1-3.033h-1.833v-7.333c0-0.4-0.122-0.722-0.367-0.967s-0.567-0.367-0.967-0.367-0.722 0.122-0.967 0.367c-0.245 0.244-0.367 0.567-0.367 0.967v13.3l-5.133-1.1-0.767 0.767 5.7 5.7zM23.334 27.333v0z">
            </path>
        </symbol>

        <symbol id="Right" viewBox="0 0 37 32">
            <path fill="#fefefe" style="fill: var(--color1, #fefefe)"
                d="M34.667 5.333v16c0 2.946-2.388 5.333-5.333 5.333h-21.333c-2.946 0-5.333-2.388-5.333-5.333v-16c0-2.946 2.388-5.333 5.333-5.333h21.333c2.946 0 5.333 2.388 5.333 5.333z">
            </path>
            <path fill="#2c2c2c" style="fill: var(--color2, #2c2c2c)"
                d="M25.7 12.73l-9.288-8.85c-0.155-0.148-0.361-0.23-0.575-0.23s-0.42 0.082-0.575 0.23l-0.010 0.010c-0.075 0.072-0.135 0.158-0.176 0.253s-0.062 0.198-0.062 0.302 0.021 0.207 0.062 0.302c0.041 0.096 0.101 0.182 0.176 0.253l8.747 8.333-8.747 8.33c-0.075 0.072-0.135 0.158-0.176 0.253s-0.062 0.198-0.062 0.302 0.021 0.207 0.062 0.302c0.041 0.096 0.101 0.182 0.176 0.253l0.010 0.010c0.155 0.148 0.361 0.23 0.575 0.23s0.42-0.082 0.575-0.23l9.288-8.85c0.082-0.078 0.147-0.171 0.191-0.275s0.067-0.215 0.067-0.328c0-0.113-0.023-0.225-0.067-0.328s-0.109-0.197-0.191-0.275z">
            </path>
        </symbol>

        <symbol id="logo" viewBox="0 0 32 32">
            <path fill="#ffe553" style="fill: var(--color6, #ffe553)"
                d="M12.018 9.046c0.738-1.444 2.802-1.444 3.541 0l0.935 1.828c0.289 0.566 0.831 0.959 1.459 1.059l2.025 0.322c1.604 0.255 2.243 2.221 1.094 3.37l-1.445 1.445c-0.45 0.45-0.657 1.088-0.558 1.716l0.319 2.020c0.253 1.603-1.417 2.818-2.864 2.083l-1.834-0.931c-0.566-0.287-1.235-0.287-1.801 0l-1.834 0.931c-1.447 0.735-3.117-0.48-2.864-2.083l0.319-2.020c0.099-0.628-0.108-1.267-0.558-1.716l-1.445-1.445c-1.149-1.148-0.51-3.115 1.094-3.37l2.025-0.322c0.627-0.1 1.169-0.493 1.459-1.059l0.935-1.828z">
            </path>
            <path fill="#2c2c2c" style="fill: var(--color7, #2c2c2c)"
                d="M2.532 19.303l-0.015 0.004c0.002 0.054-0.001 0.273-0.008 0.656-0.002 0.382-0.003 0.633-0.002 0.752-0 0.114-0.003 0.208-0.007 0.28 0 0.071 0.001 0.152 0.001 0.245-0.001 0.087-0.006 0.159-0.014 0.216-0.004 0.050-0.009 0.1-0.013 0.15-0.010 0.095-0.031 0.146-0.062 0.153-0.067 0.016-0.172-0.036-0.315-0.154-0.144-0.124-0.227-0.233-0.249-0.325s-0.028-0.772-0.017-2.039c0.016-1.268-0.019-2.101-0.102-2.501-0.018-0.077-0.015-0.144 0.010-0.199 0.026-0.12 0.16-0.234 0.402-0.34 0.247-0.107 0.616-0.219 1.106-0.335 0.495-0.117 0.888-0.182 1.179-0.197 0.296-0.015 0.455 0.023 0.477 0.116 0.015 0.062-0.019 0.116-0.1 0.163s-0.154 0.085-0.218 0.117c-0.065 0.026-0.149 0.060-0.254 0.101-0.106 0.036-0.204 0.070-0.295 0.102-0.092 0.027-0.21 0.066-0.356 0.117-0.141 0.050-0.271 0.097-0.391 0.141-0.121 0.040-0.285 0.097-0.49 0.173s-0.339 0.123-0.399 0.143c0.009 0.014 0.017 0.037 0.024 0.068 0.057 0.242 0.089 0.823 0.094 1.743 0.324-0.060 0.665-0.149 1.024-0.266 0.364-0.119 0.588-0.188 0.67-0.207 0.196-0.046 0.304-0.028 0.323 0.054 0.038 0.16-0.155 0.347-0.578 0.561-0.418 0.213-0.893 0.382-1.424 0.508zM7.585 17.881c-0.042-0.175-0.109-0.334-0.203-0.475-0.095-0.146-0.205-0.243-0.33-0.29-0.333 0.182-0.574 0.53-0.725 1.045-0.146 0.508-0.173 0.961-0.079 1.359s0.251 0.622 0.47 0.673c0.354-0.16 0.609-0.487 0.765-0.981 0.159-0.501 0.193-0.944 0.101-1.331zM5.566 18.431c0.085-0.445 0.242-0.831 0.47-1.157 0.232-0.333 0.5-0.535 0.804-0.607 0.31-0.073 0.599-0.002 0.868 0.212 0.268 0.209 0.446 0.502 0.535 0.879 0.088 0.371 0.088 0.774 0.001 1.209-0.089 0.43-0.263 0.811-0.521 1.145-0.255 0.327-0.56 0.533-0.916 0.617-0.263 0.062-0.511-0.007-0.744-0.208s-0.393-0.487-0.481-0.859c-0.089-0.377-0.094-0.787-0.014-1.231zM11.092 17.053c-0.042-0.175-0.109-0.334-0.203-0.475-0.095-0.146-0.205-0.243-0.33-0.29-0.333 0.182-0.574 0.531-0.725 1.045-0.146 0.509-0.173 0.961-0.079 1.359s0.251 0.622 0.47 0.673c0.354-0.16 0.609-0.487 0.765-0.981 0.159-0.501 0.193-0.944 0.101-1.331zM9.073 17.603c0.085-0.445 0.242-0.831 0.47-1.157 0.232-0.333 0.5-0.535 0.804-0.607 0.31-0.073 0.599-0.002 0.868 0.212 0.268 0.209 0.446 0.502 0.535 0.879 0.088 0.371 0.088 0.775 0.001 1.209-0.089 0.43-0.263 0.811-0.521 1.145-0.255 0.327-0.56 0.533-0.916 0.617-0.263 0.062-0.511-0.007-0.744-0.208s-0.393-0.487-0.481-0.859c-0.089-0.377-0.094-0.787-0.014-1.231zM14.749 12.513c0.083-0.019 0.201 0.034 0.357 0.161 0.159 0.12 0.255 0.248 0.287 0.382s0.058 0.531 0.078 1.191c0.019 0.655 0.023 1.337 0.011 2.048-0.014 1.594-0.081 2.405-0.2 2.433-0.072 0.017-0.163-0.008-0.271-0.075-0.105-0.073-0.165-0.144-0.181-0.211s-0.030-0.206-0.041-0.415c-0.383 0.635-0.763 0.997-1.14 1.086-0.227 0.054-0.458-0.001-0.693-0.163-0.23-0.164-0.371-0.357-0.423-0.578-0.076-0.32-0.081-0.719-0.014-1.198 0.070-0.485 0.225-0.947 0.465-1.384s0.542-0.7 0.909-0.787 0.674 0.072 0.922 0.477c0.004-1.156-0.056-2.054-0.181-2.695-0.037-0.155 0.002-0.246 0.115-0.272zM14.798 16.513c-0.066-0.279-0.171-0.502-0.314-0.669-0.138-0.169-0.274-0.238-0.408-0.206-0.222 0.052-0.416 0.243-0.584 0.571s-0.279 0.687-0.334 1.076c-0.051 0.383-0.046 0.703 0.015 0.961 0.022 0.093 0.073 0.16 0.154 0.201s0.167 0.050 0.26 0.028c0.201-0.048 0.438-0.256 0.71-0.625 0.277-0.37 0.447-0.77 0.509-1.199l0.001-0.098-0.009-0.039zM19.74 16.049c0.1 0.423-0.006 0.824-0.32 1.203-0.315 0.374-0.72 0.619-1.215 0.736-0.49 0.116-0.925 0.085-1.305-0.092-0.381-0.182-0.599-0.387-0.652-0.614-0.037-0.155-0.009-0.243 0.084-0.265 0.083-0.019 0.274 0.066 0.576 0.256 0.114 0.066 0.257 0.119 0.43 0.16 0.178 0.040 0.355 0.039 0.531-0.003 0.361-0.085 0.659-0.254 0.894-0.505 0.24-0.253 0.334-0.487 0.283-0.704-0.033-0.139-0.168-0.295-0.405-0.468s-0.492-0.328-0.764-0.465c-0.268-0.144-0.522-0.304-0.76-0.482s-0.373-0.331-0.403-0.46c-0.031-0.129-0.037-0.272-0.020-0.428s0.049-0.276 0.095-0.357c0.149-0.269 0.413-0.547 0.792-0.832 0.384-0.287 0.721-0.464 1.010-0.533 0.15-0.035 0.288-0.016 0.414 0.057s0.203 0.165 0.228 0.273c0.012 0.052-0.032 0.106-0.133 0.162s-0.256 0.137-0.466 0.241c-0.206 0.098-0.386 0.2-0.54 0.307-0.54 0.367-0.784 0.656-0.734 0.868 0.027 0.114 0.404 0.36 1.131 0.738 0.28 0.146 0.544 0.332 0.794 0.556 0.253 0.218 0.406 0.435 0.457 0.652zM21.518 16.439c0.023 0.098 0.092 0.134 0.205 0.107 0.196-0.046 0.421-0.157 0.674-0.331 0.257-0.181 0.401-0.274 0.432-0.282 0.093-0.022 0.151 0.016 0.174 0.114 0.035 0.15-0.078 0.359-0.342 0.628-0.258 0.268-0.513 0.432-0.766 0.491-0.248 0.058-0.47 0.040-0.667-0.055-0.198-0.1-0.314-0.223-0.349-0.367s-0.047-0.335-0.037-0.571c0.008-0.242 0.026-0.559 0.052-0.952 0.031-0.399 0.051-0.728 0.060-0.987-0.229 0.114-0.385 0.181-0.467 0.2s-0.175-0.002-0.277-0.065c-0.098-0.069-0.156-0.143-0.175-0.22-0.029-0.124 0.278-0.322 0.922-0.594-0.009-0.45-0.052-0.84-0.13-1.17-0.037-0.155-0.003-0.244 0.1-0.269 0.088-0.021 0.21 0.010 0.365 0.094 0.155 0.078 0.249 0.186 0.282 0.326s0.047 0.395 0.043 0.766c0.288-0.095 0.52-0.164 0.695-0.205 0.31-0.073 0.48-0.043 0.512 0.092 0.018 0.077-0.052 0.162-0.21 0.254-0.153 0.091-0.485 0.253-0.996 0.488-0.012 0.433-0.038 0.932-0.078 1.498-0.042 0.56-0.049 0.897-0.022 1.010zM24.976 12.386c0.232-0.055 0.474 0.013 0.727 0.204 0.251 0.186 0.399 0.374 0.445 0.565 0.044 0.186 0.025 0.392-0.058 0.618 0.080 0.063 0.127 0.123 0.141 0.179 0.034 0.144 0.059 0.4 0.075 0.767 0.021 0.365 0.037 0.604 0.047 0.716 0.015 0.111 0.026 0.201 0.031 0.27 0.004 0.064 0.006 0.129 0.005 0.195 0.010 0.134-0.021 0.209-0.093 0.226-0.093 0.022-0.189-0.040-0.289-0.185-0.096-0.152-0.18-0.355-0.251-0.611-0.321 0.691-0.678 1.083-1.070 1.176-0.237 0.056-0.496 0.011-0.776-0.136-0.276-0.153-0.44-0.337-0.491-0.554-0.073-0.31-0.050-0.718 0.069-1.226 0.118-0.513 0.316-0.99 0.593-1.431s0.575-0.7 0.895-0.775zM25.655 13.664c-0.114-0.48-0.266-0.697-0.457-0.652-0.201 0.047-0.402 0.247-0.602 0.6-0.201 0.347-0.352 0.723-0.452 1.128s-0.125 0.713-0.075 0.925c0.021 0.088 0.074 0.151 0.16 0.191 0.084 0.035 0.176 0.040 0.274 0.017 0.242-0.057 0.477-0.284 0.705-0.681 0.226-0.402 0.343-0.852 0.35-1.349-0.003-0.081 0.030-0.138 0.099-0.17l-0.002-0.008z">
            </path>
            <path fill="#bbf330" style="fill: var(--color8, #bbf330)"
                d="M24.157 18.895c-0.221 0.055-0.396 0.223-0.469 0.439-1.392 4.116-5.292 7.081-9.888 7.081-2.787 0-5.318-1.090-7.189-2.867-0.165-0.156-0.397-0.224-0.617-0.169-0.467 0.115-0.643 0.681-0.297 1.014 2.1 2.021 4.956 3.264 8.103 3.264 5.171 0 9.556-3.355 11.091-8.004 0.151-0.456-0.269-0.873-0.735-0.758zM3.050 14.652c0.252-0.062 0.439-0.272 0.486-0.528 0.885-4.855 5.143-8.539 10.265-8.539 3.33 0 6.295 1.557 8.205 3.981 0.16 0.203 0.423 0.301 0.674 0.239 0.426-0.105 0.619-0.601 0.349-0.948-2.136-2.747-5.476-4.516-9.229-4.516-5.758 0-10.542 4.161-11.501 9.635-0.076 0.432 0.325 0.779 0.75 0.674z">
            </path>
            <path fill="#bbf330" style="fill: var(--color8, #bbf330); stroke: var(--color8, #bbf330)" stroke="#bbf330"
                stroke-linejoin="round" stroke-linecap="butt" stroke-miterlimit="4" stroke-width="0.4571"
                d="M31.358 8.227c-2.759 5.276-3.971 1.796-7.855 3.84 0.388-6.124 4.503-2.398 7.855-3.84z"></path>
        </symbol>

        <symbol id="Chevron-Down" viewBox="0 0 32 32">
            <path
                d="M21.623 15.195c0.329 0.329 0.329 0.863 0 1.192l-8.592 8.592c-0.329 0.329-0.863 0.329-1.192 0l-0.397-0.397c-0.329-0.329-0.329-0.863 0-1.192l7.599-7.599-7.599-7.599c-0.329-0.329-0.329-0.863 0-1.192l0.397-0.397c0.329-0.329 0.863-0.329 1.192 0l8.592 8.592z">
            </path>
        </symbol>

        <symbol id="icon-Stars" viewBox="0 0 200 32">
            <path fill="#ffe550" style="fill: var(--color1, #ffe550)"
                d="M15.639 1.037c0.593-1.383 2.611-1.383 3.204 0l3.498 8.164c0.25 0.583 0.815 0.982 1.463 1.032l9.079 0.707c1.538 0.12 2.162 1.983 0.99 2.958l-6.917 5.752c-0.494 0.411-0.71 1.056-0.559 1.67l2.113 8.6c0.358 1.457-1.275 2.609-2.592 1.828l-7.773-4.609c-0.555-0.329-1.253-0.329-1.809 0l-7.773 4.609c-1.317 0.781-2.95-0.371-2.592-1.828l2.113-8.6c0.151-0.614-0.065-1.259-0.559-1.67l-6.918-5.752c-1.172-0.975-0.548-2.838 0.99-2.958l9.079-0.707c0.649-0.050 1.213-0.449 1.463-1.032l3.498-8.164z">
            </path>
            <path fill="#ffe550" style="fill: var(--color1, #ffe550)"
                d="M57.018 1.037c0.593-1.383 2.611-1.383 3.204 0l3.498 8.164c0.25 0.583 0.815 0.982 1.463 1.032l9.079 0.707c1.538 0.12 2.162 1.983 0.99 2.958l-6.918 5.752c-0.494 0.411-0.71 1.056-0.559 1.67l2.113 8.6c0.358 1.457-1.275 2.609-2.592 1.828l-7.773-4.609c-0.555-0.329-1.253-0.329-1.809 0l-7.773 4.609c-1.317 0.781-2.95-0.371-2.592-1.828l2.113-8.6c0.151-0.614-0.065-1.259-0.559-1.67l-6.918-5.752c-1.172-0.975-0.548-2.838 0.99-2.958l9.080-0.707c0.648-0.050 1.213-0.449 1.463-1.032l3.498-8.164z">
            </path>
            <path fill="#ffe550" style="fill: var(--color1, #ffe550)"
                d="M98.397 1.037c0.593-1.383 2.611-1.383 3.204 0l3.498 8.164c0.25 0.583 0.815 0.982 1.463 1.032l9.079 0.707c1.538 0.12 2.162 1.983 0.99 2.958l-6.917 5.752c-0.494 0.411-0.71 1.056-0.559 1.67l2.113 8.6c0.358 1.457-1.275 2.609-2.592 1.828l-7.773-4.609c-0.555-0.329-1.254-0.329-1.809 0l-7.773 4.609c-1.317 0.781-2.95-0.371-2.592-1.828l2.113-8.6c0.151-0.614-0.065-1.259-0.559-1.67l-6.918-5.752c-1.172-0.975-0.548-2.838 0.99-2.958l9.079-0.707c0.649-0.050 1.213-0.449 1.463-1.032l3.498-8.164z">
            </path>
            <path fill="#ffe550" style="fill: var(--color1, #ffe550)"
                d="M139.778 1.037c0.593-1.383 2.611-1.383 3.204 0l3.498 8.164c0.25 0.583 0.815 0.982 1.463 1.032l9.079 0.707c1.538 0.12 2.162 1.983 0.99 2.958l-6.917 5.752c-0.494 0.411-0.71 1.056-0.559 1.67l2.113 8.6c0.358 1.457-1.275 2.609-2.592 1.828l-7.773-4.609c-0.555-0.329-1.253-0.329-1.809 0l-7.773 4.609c-1.317 0.781-2.95-0.371-2.592-1.828l2.113-8.6c0.151-0.614-0.065-1.259-0.559-1.67l-6.918-5.752c-1.172-0.975-0.548-2.838 0.99-2.958l9.079-0.707c0.649-0.050 1.214-0.449 1.463-1.032l3.498-8.164z">
            </path>
            <path fill="#ffe550" style="fill: var(--color1, #ffe550)"
                d="M181.157 1.037c0.593-1.383 2.611-1.383 3.204 0l3.498 8.164c0.25 0.583 0.815 0.982 1.463 1.032l9.079 0.707c1.538 0.12 2.162 1.983 0.99 2.958l-6.917 5.752c-0.494 0.411-0.71 1.056-0.559 1.67l2.113 8.6c0.358 1.457-1.275 2.609-2.592 1.828l-7.773-4.609c-0.555-0.329-1.254-0.329-1.809 0l-7.773 4.609c-1.317 0.781-2.95-0.371-2.592-1.828l2.113-8.6c0.151-0.614-0.065-1.259-0.559-1.67l-6.917-5.752c-1.172-0.975-0.548-2.838 0.99-2.958l9.079-0.707c0.649-0.050 1.213-0.449 1.463-1.032l3.498-8.164z">
            </path>
        </symbol>

        <symbol id="icon-close" viewBox="0 0 32 32">
            <path
                d="M26.667 7.303l-1.97-1.97-7.808 7.808-7.808-7.808-1.97 1.97 7.808 7.808-7.808 7.808 1.97 1.97 7.808-7.808 7.808 7.808 1.97-1.97-7.808-7.808 7.808-7.808z" />
        </symbol>
        <symbol id="icon-person" viewBox="0 0 32 32">
            <path
                d="M16 16c2.947 0 5.333-2.387 5.333-5.333s-2.387-5.333-5.333-5.333c-2.947 0-5.333 2.387-5.333 5.333s2.387 5.333 5.333 5.333zM16 18.667c-3.56 0-10.667 1.787-10.667 5.333v1.333c0 0.733 0.6 1.333 1.333 1.333h18.667c0.733 0 1.333-0.6 1.333-1.333v-1.333c0-3.547-7.107-5.333-10.667-5.333z" />
        </symbol>
        <symbol id="icon-phone" viewBox="0 0 32 32">
            <path
                d="M24.882 19.773l-3.268-0.373c-0.785-0.090-1.557 0.18-2.11 0.733l-2.367 2.367c-3.641-1.853-6.626-4.825-8.478-8.478l2.38-2.38c0.553-0.553 0.823-1.325 0.733-2.11l-0.373-3.242c-0.154-1.299-1.248-2.277-2.56-2.277h-2.226c-1.454 0-2.663 1.209-2.573 2.663 0.682 10.987 9.469 19.761 20.443 20.443 1.454 0.090 2.663-1.119 2.663-2.573v-2.226c0.013-1.3-0.965-2.393-2.264-2.547z" />
        </symbol>
        <symbol id="icon-email" viewBox="0 0 32 32">
            <path
                d="M26.667 5.333h-21.333c-1.467 0-2.653 1.2-2.653 2.667l-0.013 16c0 1.467 1.2 2.667 2.667 2.667h21.333c1.467 0 2.667-1.2 2.667-2.667v-16c0-1.467-1.2-2.667-2.667-2.667zM26.133 11l-9.427 5.893c-0.427 0.267-0.987 0.267-1.413 0l-9.427-5.893c-0.333-0.213-0.533-0.573-0.533-0.96 0-0.893 0.973-1.427 1.733-0.96l8.933 5.587 8.933-5.587c0.76-0.467 1.733 0.067 1.733 0.96 0 0.387-0.2 0.747-0.533 0.96z" />
        </symbol>

        <symbol id="click-left" viewBox="0 0 18 32">
            <path
                d="M0.48 16.965l14.861 14.16c0.248 0.236 0.577 0.368 0.92 0.368s0.672-0.132 0.92-0.368l0.016-0.016c0.121-0.115 0.217-0.252 0.282-0.405s0.1-0.317 0.1-0.484-0.034-0.331-0.1-0.484c-0.066-0.153-0.162-0.291-0.282-0.405l-13.995-13.333 13.995-13.328c0.121-0.115 0.217-0.253 0.282-0.405s0.1-0.318 0.1-0.484-0.034-0.331-0.1-0.484c-0.066-0.153-0.162-0.291-0.282-0.405l-0.016-0.016c-0.248-0.236-0.578-0.368-0.92-0.368s-0.672 0.132-0.92 0.368l-14.861 14.16c-0.131 0.125-0.235 0.274-0.306 0.44s-0.108 0.345-0.108 0.525c0 0.181 0.037 0.359 0.108 0.525s0.175 0.316 0.306 0.44z" />
        </symbol>
        <symbol id="click-right" viewBox="0 0 18 32">
            <path
                d="M17.653 15.035l-14.861-14.16c-0.248-0.236-0.577-0.368-0.92-0.368s-0.672 0.132-0.92 0.368l-0.016 0.016c-0.121 0.115-0.217 0.253-0.282 0.405s-0.099 0.318-0.099 0.484c0 0.166 0.034 0.331 0.099 0.484s0.162 0.291 0.282 0.405l13.995 13.333-13.995 13.328c-0.121 0.115-0.217 0.252-0.282 0.405s-0.099 0.317-0.099 0.484 0.034 0.331 0.099 0.484c0.066 0.153 0.162 0.291 0.282 0.405l0.016 0.016c0.248 0.236 0.577 0.368 0.92 0.368s0.672-0.132 0.92-0.368l14.861-14.16c0.131-0.125 0.235-0.274 0.306-0.44s0.108-0.345 0.108-0.525c0-0.181-0.037-0.359-0.108-0.525s-0.175-0.316-0.306-0.44z" />
        </symbol>

        <symbol id="right1" viewBox="0 0 38 32">
            <path fill="#fff" style="fill: var(--color1, #fff)"
                d="M38.4 6.4v19.2c0 3.535-2.865 6.4-6.4 6.4h-25.6c-3.535 0-6.4-2.865-6.4-6.4v-19.2c0-3.535 2.865-6.4 6.4-6.4h25.6c3.535 0 6.4 2.865 6.4 6.4z">
            </path>
            <path fill="#2C2C2C" style="fill: var(--color2, #2C2C2C)"
                d="M27.64 15.276l-11.146-10.62c-0.186-0.177-0.433-0.276-0.69-0.276s-0.504 0.099-0.69 0.276l-0.012 0.012c-0.090 0.086-0.162 0.189-0.212 0.304s-0.075 0.238-0.075 0.363 0.025 0.248 0.075 0.363c0.049 0.115 0.121 0.218 0.212 0.304l10.496 10-10.496 9.996c-0.090 0.086-0.162 0.189-0.212 0.304s-0.075 0.238-0.075 0.363 0.025 0.248 0.075 0.363c0.049 0.115 0.121 0.218 0.212 0.304l0.012 0.012c0.186 0.177 0.433 0.276 0.69 0.276s0.504-0.099 0.69-0.276l11.146-10.62c0.098-0.093 0.176-0.206 0.229-0.33s0.081-0.258 0.081-0.394c0-0.135-0.028-0.269-0.081-0.394s-0.131-0.237-0.229-0.33z">
            </path>
        </symbol>
        <symbol id="left1" viewBox="0 0 38 32">
            <path fill="#fff" style="fill: var(--color1, #fff)"
                d="M0 25.6v-19.2c0-3.535 2.865-6.4 6.4-6.4h25.6c3.535 0 6.4 2.865 6.4 6.4v19.2c0 3.535-2.865 6.4-6.4 6.4h-25.6c-3.535 0-6.4-2.865-6.4-6.4z">
            </path>
            <path fill="#2C2C2C" style="fill: var(--color2, #2C2C2C)"
                d="M10.76 16.724l11.146 10.62c0.186 0.177 0.433 0.276 0.69 0.276s0.504-0.099 0.69-0.276l0.012-0.012c0.090-0.086 0.162-0.189 0.212-0.304s0.075-0.238 0.075-0.363-0.025-0.248-0.075-0.363c-0.049-0.115-0.121-0.218-0.212-0.304l-10.496-10 10.496-9.996c0.090-0.086 0.162-0.189 0.212-0.304s0.075-0.238 0.075-0.363-0.025-0.248-0.075-0.363c-0.049-0.115-0.121-0.218-0.212-0.304l-0.012-0.012c-0.186-0.177-0.433-0.276-0.69-0.276s-0.504 0.099-0.69 0.276l-11.146 10.62c-0.098 0.093-0.176 0.206-0.229 0.33s-0.081 0.258-0.081 0.394c0 0.135 0.028 0.269 0.081 0.394s0.131 0.237 0.229 0.33z">
            </path>
        </symbol>
        <symbol id="icon-Frameerror" viewBox="0 0 32 32">
            <path fill="none" stroke="#ff705d" style="stroke:var(--color1, #ff705d)" stroke-linejoin="round"
                stroke-linecap="round" stroke-width="2.286"
                d="M16 11.429v6.857M16.002 26.286a1.143 1.143 0 1 0 0-2.287 1.143 1.143 0 0 0 0 2.287z" />
            <path fill="none" stroke="#ff705d" style="stroke:var(--color1, #ff705d)" stroke-linejoin="round"
                stroke-linecap="round" stroke-width="2.286"
                d="M18.036 2.4a2.286 2.286 0 0 0-4.068 0L1.397 27.543a2.281 2.281 0 0 0 .094 2.224 2.287 2.287 0 0 0 1.941 1.09h25.143a2.28 2.28 0 0 0 1.941-1.09 2.292 2.292 0 0 0 .093-2.224L18.038 2.4z" />
        </symbol>



        <symbol id="icon-logo-new" viewBox="0 0 43 32">
            <path fill="#ffe550" style="fill: var(--color1, #ffe550)"
                d="M14.732 8.449c1.446-2.818 5.48-2.818 6.926 0 0.565 1.1 1.627 1.867 2.849 2.060 3.119 0.493 4.381 4.322 2.144 6.55-0.878 0.874-1.283 2.117-1.088 3.34 0.494 3.117-2.785 5.468-5.601 4.043-1.105-0.559-2.428-0.559-3.533 0-2.816 1.424-6.095-0.927-5.601-4.043 0.194-1.223-0.211-2.466-1.088-3.34-2.238-2.227-0.975-6.057 2.144-6.55 1.221-0.193 2.284-0.96 2.849-2.060z">
            </path>
            <path fill="#2c2c2c" style="fill: var(--color2, #2c2c2c)"
                d="M2.709 20.651l-0.021 0.005c0.003 0.074-0.001 0.373-0.012 0.898-0.003 0.523-0.004 0.866-0.003 1.030-0 0.157-0.004 0.284-0.010 0.383 0.001 0.097 0.001 0.209 0.001 0.335-0.002 0.12-0.008 0.218-0.020 0.296-0.006 0.069-0.012 0.137-0.019 0.206-0.014 0.13-0.042 0.2-0.085 0.21-0.092 0.022-0.237-0.049-0.433-0.211-0.198-0.17-0.312-0.318-0.343-0.445s-0.038-1.058-0.022-2.792c0.022-1.736-0.024-2.877-0.139-3.425-0.025-0.106-0.020-0.197 0.014-0.272 0.036-0.165 0.22-0.32 0.554-0.466 0.34-0.147 0.848-0.3 1.524-0.459 0.683-0.161 1.224-0.251 1.625-0.27 0.408-0.021 0.627 0.032 0.657 0.159 0.020 0.085-0.026 0.159-0.138 0.223s-0.212 0.117-0.3 0.16c-0.089 0.036-0.206 0.082-0.35 0.138-0.146 0.049-0.281 0.096-0.406 0.14-0.126 0.037-0.29 0.091-0.491 0.16-0.194 0.068-0.374 0.133-0.539 0.194-0.167 0.054-0.393 0.133-0.676 0.237s-0.467 0.169-0.55 0.196c0.012 0.020 0.023 0.050 0.033 0.093 0.079 0.332 0.122 1.127 0.129 2.386 0.446-0.082 0.916-0.204 1.411-0.365 0.502-0.163 0.81-0.258 0.923-0.284 0.27-0.064 0.419-0.039 0.446 0.074 0.052 0.219-0.213 0.475-0.797 0.769-0.576 0.292-1.231 0.524-1.963 0.696z">
            </path>
            <path fill="#2c2c2c" style="fill: var(--color2, #2c2c2c)"
                d="M9.672 18.701c-0.057-0.24-0.15-0.457-0.279-0.651-0.13-0.201-0.282-0.333-0.455-0.397-0.459 0.25-0.792 0.727-0.999 1.432-0.202 0.696-0.239 1.317-0.109 1.861s0.345 0.851 0.647 0.922c0.488-0.219 0.84-0.667 1.054-1.344 0.22-0.686 0.267-1.293 0.14-1.823zM6.89 19.456c0.118-0.61 0.334-1.138 0.648-1.584 0.32-0.456 0.689-0.733 1.109-0.831 0.427-0.1 0.825-0.004 1.195 0.29 0.368 0.286 0.614 0.687 0.737 1.203 0.121 0.509 0.121 1.061-0 1.656-0.123 0.588-0.363 1.111-0.719 1.568-0.351 0.448-0.772 0.73-1.263 0.845-0.363 0.085-0.704-0.010-1.025-0.285s-0.542-0.667-0.663-1.176c-0.123-0.516-0.129-1.077-0.018-1.685z">
            </path>
            <path fill="#2c2c2c" style="fill: var(--color2, #2c2c2c)"
                d="M14.505 17.565c-0.057-0.24-0.15-0.457-0.279-0.651-0.13-0.201-0.282-0.333-0.455-0.397-0.459 0.25-0.792 0.727-0.999 1.432-0.202 0.696-0.239 1.317-0.109 1.861s0.345 0.851 0.647 0.922c0.488-0.219 0.84-0.667 1.054-1.344 0.22-0.686 0.267-1.293 0.14-1.823zM11.723 18.32c0.118-0.61 0.334-1.138 0.648-1.584 0.32-0.456 0.689-0.733 1.109-0.831 0.427-0.1 0.825-0.004 1.195 0.29 0.368 0.286 0.614 0.687 0.737 1.203 0.121 0.509 0.121 1.061-0 1.656-0.123 0.588-0.363 1.111-0.719 1.568-0.351 0.448-0.772 0.73-1.263 0.845-0.363 0.085-0.704-0.010-1.025-0.285s-0.542-0.667-0.663-1.176c-0.123-0.516-0.129-1.077-0.018-1.685z">
            </path>
            <path fill="#2c2c2c" style="fill: var(--color2, #2c2c2c)"
                d="M19.547 11.345c0.114-0.027 0.278 0.047 0.492 0.22 0.219 0.165 0.351 0.339 0.395 0.523s0.079 0.727 0.107 1.631c0.026 0.897 0.030 1.832 0.014 2.805-0.021 2.183-0.113 3.294-0.277 3.332-0.1 0.023-0.224-0.011-0.374-0.102-0.144-0.1-0.227-0.197-0.249-0.288s-0.041-0.281-0.056-0.569c-0.529 0.87-1.053 1.366-1.572 1.488-0.313 0.074-0.631-0.001-0.954-0.223-0.316-0.224-0.51-0.488-0.583-0.792-0.104-0.438-0.11-0.985-0.019-1.64 0.097-0.664 0.311-1.296 0.641-1.896s0.748-0.959 1.253-1.078c0.505-0.119 0.928 0.099 1.27 0.652 0.006-1.583-0.076-2.813-0.248-3.69-0.050-0.212 0.003-0.336 0.159-0.373zM19.612 16.823c-0.091-0.381-0.235-0.687-0.432-0.917-0.19-0.231-0.378-0.325-0.563-0.282-0.306 0.072-0.574 0.333-0.805 0.782s-0.384 0.941-0.46 1.473c-0.071 0.524-0.064 0.962 0.020 1.316 0.030 0.127 0.101 0.219 0.212 0.275s0.23 0.069 0.358 0.039c0.277-0.065 0.604-0.351 0.979-0.857 0.382-0.508 0.616-1.055 0.702-1.642l0.002-0.135-0.013-0.053z">
            </path>
            <path fill="#2c2c2c" style="fill: var(--color2, #2c2c2c)"
                d="M26.421 16.184c0.138 0.579-0.009 1.128-0.441 1.648-0.434 0.512-0.992 0.849-1.675 1.009-0.675 0.159-1.275 0.117-1.798-0.125-0.525-0.25-0.824-0.53-0.898-0.841-0.050-0.212-0.012-0.333 0.116-0.363 0.114-0.027 0.378 0.090 0.793 0.351 0.157 0.090 0.354 0.163 0.593 0.219 0.246 0.054 0.489 0.053 0.731-0.004 0.498-0.117 0.908-0.348 1.232-0.692 0.331-0.346 0.461-0.668 0.39-0.964-0.045-0.191-0.231-0.404-0.558-0.641s-0.677-0.449-1.052-0.636c-0.37-0.197-0.719-0.417-1.047-0.66s-0.513-0.454-0.555-0.63c-0.042-0.177-0.051-0.372-0.027-0.587s0.068-0.378 0.131-0.49c0.205-0.369 0.569-0.749 1.091-1.14 0.53-0.393 0.994-0.636 1.392-0.73 0.206-0.048 0.396-0.022 0.571 0.078s0.279 0.225 0.314 0.374c0.017 0.071-0.044 0.145-0.184 0.222s-0.353 0.187-0.642 0.33c-0.284 0.134-0.532 0.274-0.744 0.421-0.744 0.503-1.081 0.899-1.012 1.189 0.037 0.155 0.556 0.492 1.558 1.010 0.386 0.2 0.75 0.454 1.093 0.761 0.349 0.298 0.559 0.596 0.629 0.893z">
            </path>
            <path fill="#2c2c2c" style="fill: var(--color2, #2c2c2c)"
                d="M28.87 16.716c0.032 0.134 0.126 0.183 0.283 0.146 0.27-0.064 0.58-0.215 0.928-0.453 0.354-0.247 0.552-0.376 0.595-0.386 0.128-0.030 0.208 0.022 0.24 0.156 0.049 0.205-0.108 0.492-0.471 0.86-0.356 0.367-0.708 0.592-1.056 0.674-0.341 0.080-0.648 0.055-0.919-0.075-0.273-0.137-0.433-0.305-0.48-0.503s-0.064-0.459-0.051-0.782c0.011-0.331 0.036-0.765 0.073-1.304 0.042-0.547 0.070-0.997 0.084-1.351-0.316 0.156-0.53 0.248-0.644 0.275s-0.241-0.003-0.382-0.089c-0.135-0.095-0.215-0.196-0.241-0.302-0.040-0.169 0.383-0.441 1.271-0.813-0.012-0.616-0.071-1.151-0.179-1.603-0.050-0.212-0.005-0.335 0.138-0.368 0.121-0.028 0.289 0.014 0.503 0.128 0.213 0.107 0.342 0.255 0.388 0.446s0.065 0.54 0.058 1.049c0.397-0.131 0.716-0.224 0.958-0.281 0.427-0.1 0.662-0.059 0.706 0.125 0.025 0.106-0.071 0.222-0.289 0.348-0.211 0.124-0.668 0.347-1.372 0.669-0.017 0.593-0.053 1.277-0.109 2.051-0.058 0.767-0.068 1.228-0.031 1.384z">
            </path>
            <path fill="#2c2c2c" style="fill: var(--color2, #2c2c2c)"
                d="M33.639 11.164c0.32-0.075 0.654 0.018 1.001 0.279 0.346 0.254 0.55 0.512 0.612 0.774 0.060 0.254 0.034 0.537-0.080 0.847 0.111 0.086 0.175 0.168 0.194 0.245 0.047 0.198 0.082 0.548 0.103 1.050 0.029 0.5 0.050 0.827 0.064 0.981 0.021 0.152 0.035 0.275 0.043 0.37 0.006 0.088 0.008 0.177 0.007 0.267 0.014 0.183-0.029 0.287-0.129 0.31-0.128 0.030-0.261-0.054-0.398-0.253-0.132-0.208-0.247-0.486-0.345-0.836-0.443 0.947-0.935 1.484-1.475 1.611-0.327 0.077-0.683 0.015-1.069-0.185-0.38-0.209-0.605-0.462-0.676-0.758-0.101-0.424-0.069-0.983 0.096-1.678 0.163-0.702 0.436-1.356 0.817-1.96s0.793-0.959 1.234-1.062zM34.574 12.914c-0.156-0.657-0.366-0.954-0.629-0.893-0.277 0.065-0.554 0.339-0.829 0.822-0.277 0.475-0.485 0.991-0.623 1.545s-0.173 0.977-0.104 1.266c0.029 0.12 0.102 0.207 0.22 0.262 0.116 0.047 0.242 0.055 0.377 0.023 0.334-0.079 0.658-0.39 0.972-0.933 0.312-0.551 0.473-1.167 0.484-1.848-0.004-0.111 0.041-0.189 0.136-0.233l-0.002-0.011z">
            </path>
            <path fill="#bbf330" style="fill: var(--color3, #bbf330)"
                d="M31.525 20.209c-0.487 0.12-0.876 0.479-1.073 0.941-2.018 4.725-6.731 8.048-12.24 8.048-3.194 0-6.121-1.117-8.41-2.977-0.387-0.315-0.896-0.451-1.38-0.331-1.085 0.267-1.487 1.578-0.635 2.3 2.808 2.376 6.448 3.811 10.425 3.811 6.774 0 12.57-4.161 14.944-10.053 0.416-1.034-0.549-2.004-1.631-1.738zM4.193 13.954c0.562-0.138 0.982-0.598 1.123-1.159 1.441-5.732 6.657-9.993 12.895-9.993 3.94 0 7.473 1.7 9.904 4.397 0.385 0.427 0.967 0.636 1.525 0.498 0.981-0.241 1.421-1.382 0.759-2.145-2.951-3.4-7.317-5.552-12.188-5.552-7.648 0-14.049 5.304-15.687 12.414-0.226 0.98 0.692 1.78 1.668 1.54z">
            </path>
            <path fill="#bbf330" style="fill: var(--color3, #bbf330); stroke: var(--color3, #bbf330)" stroke="#bbf330"
                stroke-linejoin="round" stroke-linecap="butt" stroke-miterlimit="4" stroke-width="1.0308"
                d="M42.409 5.331c-3.803 7.241-5.473 2.465-10.826 5.271 0.535-8.406 6.205-3.291 10.826-5.271z"></path>
        </symbol>

    </defs>
</svg>